<?xml version="1.0" encoding="UTF-8"?>
<!DOCTYPE svg PUBLIC "-//W3C//DTD SVG 1.1//EN" "http://www.w3.org/Graphics/SVG/1.1/DTD/svg11.dtd">
<svg version="1.1" xmlns="http://www.w3.org/2000/svg" xmlns:xlink="http://www.w3.org/1999/xlink" x="0" y="0" width="799" height="246" viewBox="0, 0, 799, 246">
  <defs>
    <clipPath id="Clip_1">
      <path d="M-0,0.506 L798.96,0.506 L798.96,245.94 L-0,245.94 z"/>
    </clipPath>
    <clipPath id="Clip_2">
      <path d="M-0,0.506 L798.96,0.506 L798.96,245.94 L-0,245.94 z"/>
    </clipPath>
    <clipPath id="Clip_3">
      <path d="M-0,0.506 L366.82,0.506 L366.82,245.94 L-0,245.94 z"/>
    </clipPath>
  </defs>
  <g id="Layer_1">
    <path d="M390.75,60.494 L400.893,60.494 L408.091,85.36 L408.186,85.36 L416.786,60.494 L426.414,60.494 L435.014,85.36 L435.108,85.36 L442.306,60.494 L452.449,60.494 L441.464,94.334 L429.546,94.334 L421.647,71.992 L421.552,71.992 L413.654,94.334 L401.735,94.334 L390.75,60.494" fill="#184183"/>
    <path d="M455.342,60.494 L492.361,60.494 L492.361,68.347 L465.717,68.347 L465.717,73.769 L490.958,73.769 L490.958,80.78 L465.717,80.78 L465.717,86.201 L492.967,86.201 L492.967,94.334 L455.342,94.334 L455.342,60.494" fill="#184183"/>
    <path d="M520.447,60.494 L536.385,60.494 L548.117,82.276 L559.849,60.494 L575.789,60.494 L575.789,94.334 L565.691,94.334 L565.691,70.029 L565.598,70.029 L551.996,94.334 L544.238,94.334 L530.636,70.029 L530.543,70.029 L530.543,94.334 L520.447,94.334 L520.447,60.494" fill="#184183"/>
    <path d="M597.051,81.06 L610.324,81.06 L603.594,68.347 L597.051,81.06 z M596.863,60.494 L610.372,60.494 L628.974,94.334 L617.428,94.334 L614.203,88.352 L593.17,88.352 L590.133,94.334 L578.54,94.334 L596.863,60.494" fill="#184183"/>
    <path d="M631.728,60.494 L642.104,60.494 L642.104,72.927 L646.965,72.927 L660.052,60.494 L674.169,60.494 L655.846,77.041 L676.318,94.334 L661.643,94.334 L646.685,81.341 L642.104,81.341 L642.104,94.334 L631.728,94.334 L631.728,60.494" fill="#184183"/>
    <path d="M679.259,60.494 L716.278,60.494 L716.278,68.347 L689.635,68.347 L689.635,73.769 L714.875,73.769 L714.875,80.78 L689.635,80.78 L689.635,86.201 L716.884,86.201 L716.884,94.334 L679.259,94.334 L679.259,60.494" fill="#184183"/>
    <g clip-path="url(#Clip_1)">
      <path d="M744.924,60.494 L755.299,60.494 L755.299,94.335 L744.924,94.335 z" fill="#184183"/>
      <path d="M759.457,60.494 L799,60.494 L799,68.907 L784.417,68.907 L784.417,94.334 L774.04,94.334 L774.04,68.907 L759.457,68.907 L759.457,60.494" fill="#184183"/>
    </g>
    <path d="M390.75,60.494 L400.893,60.494 L408.091,85.36 L408.186,85.36 L416.786,60.494 L426.414,60.494 L435.014,85.36 L435.108,85.36 L442.306,60.494 L452.449,60.494 L441.464,94.334 L429.546,94.334 L421.647,71.992 L421.552,71.992 L413.654,94.334 L401.735,94.334 L390.75,60.494" fill="#184183"/>
    <path d="M455.342,60.494 L492.361,60.494 L492.361,68.347 L465.717,68.347 L465.717,73.769 L490.958,73.769 L490.958,80.78 L465.717,80.78 L465.717,86.201 L492.967,86.201 L492.967,94.334 L455.342,94.334 L455.342,60.494" fill="#184183"/>
    <path d="M520.447,60.494 L536.385,60.494 L548.117,82.276 L559.849,60.494 L575.789,60.494 L575.789,94.334 L565.691,94.334 L565.691,70.029 L565.598,70.029 L551.996,94.334 L544.238,94.334 L530.636,70.029 L530.543,70.029 L530.543,94.334 L520.447,94.334 L520.447,60.494" fill="#184183"/>
    <path d="M597.051,81.06 L610.324,81.06 L603.594,68.347 L597.051,81.06 z M596.863,60.494 L610.372,60.494 L628.974,94.334 L617.428,94.334 L614.203,88.352 L593.17,88.352 L590.133,94.334 L578.54,94.334 L596.863,60.494" fill="#184183"/>
    <path d="M631.728,60.494 L642.104,60.494 L642.104,72.927 L646.965,72.927 L660.052,60.494 L674.169,60.494 L655.846,77.041 L676.318,94.334 L661.643,94.334 L646.685,81.341 L642.104,81.341 L642.104,94.334 L631.728,94.334 L631.728,60.494" fill="#184183"/>
    <path d="M679.259,60.494 L716.278,60.494 L716.278,68.347 L689.635,68.347 L689.635,73.769 L714.875,73.769 L714.875,80.78 L689.635,80.78 L689.635,86.201 L716.884,86.201 L716.884,94.334 L679.259,94.334 L679.259,60.494" fill="#184183"/>
    <g clip-path="url(#Clip_2)">
      <path d="M744.924,60.494 L755.299,60.494 L755.299,94.335 L744.924,94.335 z" fill="#184183"/>
      <path d="M759.457,60.494 L799,60.494 L799,68.907 L784.417,68.907 L784.417,94.334 L774.04,94.334 L774.04,68.907 L759.457,68.907 L759.457,60.494" fill="#184183"/>
    </g>
    <path d="M438.021,183.643 C428.76,186.594 412.012,190.187 401.617,190.187 L401.104,190.187 C396.612,190.187 393.338,188.519 391.744,184.413 L391.71,184.541 C390.423,181.205 390.318,176.328 391.901,170.426 C393.037,166.19 397.026,158.491 399.36,153.615 C398.3,153.743 397.145,153.743 396.118,153.743 C395.604,153.743 395.22,153.743 394.612,153.615 L394.228,153.615 C390.249,153.615 388.721,151.176 389.351,148.353 C389.9,146.3 391.571,144.375 394.072,142.707 L393.943,142.707 C395.212,141.808 397.309,141.167 398.977,141.167 C399.875,141.167 400.832,141.424 401.628,141.808 C402.945,141.679 404.647,141.551 406.291,141.167 C410.715,134.238 414.636,126.795 416.354,122.302 C416.491,121.79 416.791,121.148 416.963,120.507 L417.204,119.608 C416.493,119.865 415.817,119.993 415.398,120.121 C412.916,120.763 410.144,121.533 407.499,122.302 L407.661,122.175 C406.916,122.559 405.984,122.687 405.214,122.687 C402.006,122.687 400.675,119.993 401.467,117.042 C402.051,114.861 404.022,112.294 407.155,111.138 C425.43,104.722 444.86,103.567 459.361,103.567 C462.569,103.567 465.486,103.695 468.182,103.695 C472.125,103.824 473.455,106.519 472.768,109.085 L472.561,109.856 C471.804,112.678 469.191,115.246 465.727,115.246 L465.084,115.246 C462.262,115.246 459.473,115.117 456.65,115.117 C447.667,115.117 438.256,115.759 429.826,117.042 C429.749,117.812 429.705,118.454 429.498,119.223 C429.361,119.736 429.061,120.379 428.923,120.891 C427.092,126.282 423.379,132.954 419.862,139.371 C432.441,137.446 447.339,135.008 455.776,133.211 L455.614,133.339 C456.453,133.082 456.582,133.082 456.967,133.082 C459.66,133.082 460.906,135.135 460.732,137.702 C460.698,137.831 460.688,138.343 460.585,138.728 C459.932,141.167 457.926,143.862 454.348,144.759 C445.842,146.813 424.38,150.278 412.547,151.818 C408.61,158.362 405.479,164.779 403.965,170.426 L403.724,171.323 C403.07,173.761 402.87,175.943 403.621,176.969 C404.057,177.74 405.014,177.997 406.297,177.997 L406.939,177.997 C414.382,177.997 426.388,175.815 436.873,172.607 C441.357,171.195 444.756,169.527 448.045,166.833 C449.904,165.164 451.582,164.651 452.993,164.651 C454.533,164.651 455.842,165.036 456.722,166.062 L456.594,166.062 C457.602,167.09 457.924,168.757 457.407,170.682 C457.063,171.965 456.557,173.377 455.058,174.66 L455.092,174.531 C450.492,178.766 444.637,181.462 438.021,183.643" fill="#AB2430"/>
    <path d="M524.881,170.298 C524.33,172.35 522.719,174.531 520.52,175.558 C513.885,178.766 505.008,181.718 498.548,182.359 C497.359,182.488 496.076,182.488 495.178,182.488 C489.531,182.488 487.061,180.692 485.398,176.842 L485.364,176.969 C484.656,175.302 484.371,171.58 485.059,169.013 C484.803,169.013 484.512,169.141 484.187,169.398 C481.626,170.81 477.173,174.018 472.626,177.098 C469.799,179.023 467.103,180.948 464.636,182.488 C460.157,185.311 456.383,186.467 453.304,186.467 C450.608,186.467 448.539,185.567 447.155,184.028 C445.268,181.974 444.845,178.766 446.074,174.66 C447.072,170.938 449.259,167.09 451.95,163.752 C459.801,153.615 472.742,144.118 481.037,139.499 C485.832,136.932 492.768,133.082 499.057,133.082 C502.393,133.082 505.676,134.238 508.478,137.189 C509.803,138.471 509.996,140.14 509.618,141.551 C509.309,142.707 508.811,143.605 508.057,144.503 C506.42,146.3 504.022,147.584 501.584,147.584 C500.43,147.584 499.25,147.198 498.301,146.428 C497.421,145.402 495.984,145.017 494.445,145.017 C492.135,145.017 489.036,146.044 485.081,148.353 C477.982,152.331 466.3,161.443 460.874,168.757 C460.12,169.656 459.451,171.195 459.141,172.35 C459.003,172.864 458.9,173.249 458.994,173.377 C458.959,173.506 459.054,173.634 459.182,173.634 C459.695,173.634 460.568,173.249 461.673,172.479 L463.522,171.323 C470.305,167.09 481.617,158.877 487.902,155.539 L487.867,155.668 C490.556,154.257 492.909,153.615 494.834,153.615 C498.299,153.615 500.188,155.668 499.052,159.902 L498.535,161.828 C497.916,164.137 497.494,166.19 497.697,167.345 C497.848,169.656 498.797,170.426 500.722,170.426 L501.235,170.426 C505.642,169.784 513.481,167.345 517.848,165.421 C519.012,164.907 519.851,164.651 520.877,164.651 C522.545,164.651 523.751,165.421 524.562,166.704 L524.526,166.833 C525.021,167.859 525.19,169.141 524.881,170.298" fill="#AB2430"/>
    <path d="M560.159,137.702 C558.619,137.702 556.96,137.189 555.379,135.905 C550.854,136.034 539.555,139.884 533.424,143.605 C531.446,144.759 530.272,145.787 529.903,146.684 C529.895,147.198 530.457,147.968 531.663,148.738 C532.902,149.38 533.886,150.021 535.125,150.664 C538.107,152.46 541.382,154.128 544.406,157.208 C547.584,160.673 547.876,165.805 546.604,170.553 C545.296,175.43 542.25,180.563 538.652,184.413 C532.5,191.086 524.886,196.989 515.237,201.865 C512.874,203.02 510.777,203.662 508.34,203.662 C506.029,203.662 503.984,203.149 502.336,202.122 C499.797,200.582 499.425,198.144 500.01,195.962 C500.25,195.064 500.945,193.909 501.477,192.883 C502.892,190.957 504.903,189.675 507.213,189.675 C508.496,189.675 509.582,189.931 510.719,190.957 C511.001,191.343 511.479,191.471 511.863,191.471 C512.377,191.471 513.054,191.343 513.671,190.957 C519.955,187.621 526.626,182.359 530.619,177.997 C532.977,175.43 534.237,173.12 534.856,170.81 L534.994,170.298 C535.373,168.885 535.237,167.474 534.392,166.318 C532.352,163.881 528.316,161.699 523.58,159.261 C523.007,159.005 522.691,158.748 522.118,158.491 C516.741,156.053 514.762,151.946 515.967,147.455 C517.102,143.22 521.549,138.6 528.938,134.494 L528.81,134.494 C536.302,130.003 549.398,124.228 559.408,124.228 L559.793,124.228 C563.258,124.228 565.865,125.51 566.854,127.564 L566.889,127.436 C567.605,128.592 567.87,130.003 567.457,131.543 C567.078,132.954 566.221,134.238 565.141,135.392 C563.701,136.932 561.955,137.702 560.159,137.702" fill="#AB2430"/>
    <path d="M616.102,154 C612.041,169.141 602.062,195.834 592.99,214.826 C591.292,218.291 588.372,220.088 585.677,220.088 C585.292,220.088 585.035,220.088 584.463,219.831 L584.428,219.96 C581.999,219.446 580.334,217.521 581.193,214.313 C581.4,213.544 581.633,213.158 581.933,212.516 C590.074,196.989 598.758,172.735 602.853,157.465 L602.99,156.951 C603.059,156.694 602.965,156.566 602.837,156.566 C602.323,156.566 601.484,156.823 600.961,157.336 C594.067,162.469 579.8,172.607 571.084,177.354 C566.256,180.05 561.607,181.59 557.758,181.59 C554.807,181.59 552.574,180.82 550.559,178.766 C548.765,176.842 546.964,173.506 548.513,167.73 C550.621,159.389 559.714,147.968 564.768,143.476 L564.733,143.605 C566.79,141.679 568.793,140.91 570.589,140.91 C571.872,140.91 572.736,141.039 573.369,141.551 C574.984,142.707 575.82,144.375 575.27,146.428 C574.891,147.841 573.905,149.123 572.338,150.664 C568.551,154.257 562.414,161.828 561.244,166.19 C560.866,167.602 561.301,168.372 561.678,168.885 C561.9,169.013 562.344,169.27 562.729,169.27 C563.884,169.27 565.596,168.629 567.702,167.474 C578.885,161.185 594.325,150.021 605.52,141.295 C607.601,139.756 609.767,138.857 612.076,138.857 C612.846,138.857 613.839,138.985 614.762,139.371 C616.925,140.397 618.521,142.579 617.874,146.428 C617.615,148.353 616.927,150.92 616.102,154" fill="#AB2430"/>
    <path d="M648.904,107.674 C645.363,118.967 639.323,137.189 634.289,151.176 C632.94,154.769 630.184,156.438 627.874,156.438 C625.308,156.438 623.351,154.641 624.279,151.176 L624.452,150.535 C626.964,141.167 631.402,129.875 634.6,119.865 C637.315,111.652 639.789,104.338 641.379,99.845 C642.667,95.996 645.46,94.199 648.154,94.199 C650.336,94.199 651.941,95.868 651.689,99.204 L651.724,99.076 C651.635,100.359 650.981,102.797 650.638,104.081 C650.19,105.749 649.625,106.904 648.904,107.674 z M627.057,176.714 C626.403,179.151 624.921,181.333 622.873,182.744 C621.152,183.9 619.475,184.413 618.191,184.413 C616.268,184.413 614.549,183.643 613.652,181.718 C612.877,180.306 612.75,178.382 613.232,176.585 C613.852,174.275 615.335,172.093 617.579,170.426 C619.138,169.398 620.722,168.757 622.39,168.757 C624.187,168.757 625.298,169.398 626.306,170.426 L626.398,170.553 C627.526,172.093 627.677,174.403 627.057,176.714" fill="#AB2430"/>
    <path d="M392.345,236.472 C430.668,226.116 469.809,218.896 509.339,215.192 C546.856,211.676 587.016,208.502 623.255,220.97 C630.573,223.487 633.716,211.9 626.445,209.398 C589.204,196.586 547.898,199.579 509.339,203.192 C468.744,206.996 428.515,214.264 389.155,224.901 C381.709,226.913 384.869,238.493 392.345,236.472" fill="#AB2430"/>
    <g clip-path="url(#Clip_3)">
      <path d="M135.694,246 L-0,179.351 L-0,64.939 L135.758,0.506 L225.445,0.506 L366.82,64.836 L366.82,179.456 L225.507,246 L135.694,246" fill="#184183"/>
    </g>
    <path d="M137.806,9.598 L223.474,9.598 L357.729,70.687 L357.729,173.688 L223.474,236.908 L137.806,236.908 L9.092,173.688 L9.092,70.687 L137.806,9.598" fill="#FFFFFE"/>
    <path d="M27.673,136.324 L27.673,89.221 L79.04,89.221 L79.04,101.46 L43.298,101.46 L43.298,107.029 L77.159,107.029 L77.159,118.14 L43.298,118.14 L43.298,123.709 L79.855,123.709 L79.855,136.324 L27.673,136.324 z M134.348,136.324 L124.291,107.878 L114.234,136.324 L97.022,136.324 L81.734,89.221 L97.154,89.221 L106.299,120.813 L117.225,89.221 L131.357,89.221 L142.283,120.813 L151.428,89.221 L166.848,89.221 L151.56,136.324 L134.348,136.324 z M198.935,116.811 L191.331,102.45 L183.94,116.811 L198.935,116.811 z M209.372,136.324 L205.046,128.297 L177.861,128.297 L173.785,136.324 L156.281,136.324 L181.784,89.221 L200.917,89.221 L226.81,136.324 L209.372,136.324 z M228.099,136.324 L228.099,89.221 L243.724,89.221 L243.724,122.956 L275.013,122.956 L275.013,136.324 L228.099,136.324 z M318.379,122.956 C324.138,122.956 325.803,121.319 325.803,115.657 L325.803,109.512 C325.803,103.85 324.138,102.213 318.379,102.213 L294.525,102.213 L294.525,122.956 L318.379,122.956 z M278.901,136.324 L278.901,89.221 L321.766,89.221 C335.915,89.221 341.429,93.891 341.429,105.875 L341.429,119.67 C341.429,131.655 335.915,136.324 321.766,136.324 L278.901,136.324" fill="#184183"/>
    <path d="M27.103,77.882 L146.594,21.468 L160.062,21.468 L71.445,77.882 L27.103,77.882 z M95.183,77.882 L162.167,21.468 L173.738,21.468 L137.864,77.882 L95.183,77.882 z M162.967,77.882 L177.043,21.468 L187.627,21.468 L204.902,77.882 L162.967,77.882 z M229.954,77.882 L190.713,21.468 L201.91,21.468 L272.741,77.882 L229.954,77.882 z M296.355,77.882 L203.387,21.468 L216.086,21.468 L340.889,77.882 L296.355,77.882" fill="#AB2430"/>
    <path d="M146.594,223.645 L27.103,167.231 L71.445,167.231 L160.062,223.645 L146.594,223.645 z M162.167,223.645 L95.183,167.231 L137.864,167.231 L173.738,223.645 L162.167,223.645 z M177.043,223.645 L162.967,167.231 L204.902,167.231 L187.627,223.645 L177.043,223.645 z M190.713,223.645 L229.954,167.231 L272.741,167.231 L201.91,223.645 L190.713,223.645 z M203.387,223.645 L296.355,167.231 L340.889,167.231 L216.086,223.645 L203.387,223.645" fill="#AB2430"/>
    <path d="M340.546,153.801 L340.426,154.313 C339.975,156.222 339.543,157.944 337.477,159.27 C335.415,160.574 333.278,160.551 331.034,160.551 C325.769,160.551 321.979,160.318 323.482,153.941 L324.547,149.426 C325.905,143.654 329.536,142.816 335.213,142.816 C340.529,142.816 342.89,143.304 341.759,148.541 L341.6,149.216 L336.284,149.216 L336.443,148.541 C336.631,146.982 335.446,146.865 333.69,146.865 C330.75,146.865 330.275,147.68 329.687,150.17 L329.045,152.893 C328.431,155.5 328.323,156.501 331.42,156.501 C333.562,156.501 334.628,156.361 335.111,154.313 L335.23,153.801 L340.546,153.801 z M316.484,153.638 L317.411,149.705 C318.019,147.121 317.124,146.865 314.442,146.865 C311.757,146.865 310.819,147.121 310.134,149.705 L309.205,153.638 C308.671,156.245 309.487,156.501 312.172,156.501 C314.854,156.501 315.868,156.245 316.484,153.638 z M303.77,154.15 L304.932,149.216 C306.2,143.84 310.157,142.816 315.396,142.816 C320.632,142.816 324.107,143.84 322.84,149.216 L321.678,154.15 C320.411,159.527 316.453,160.551 311.217,160.551 C305.978,160.551 302.503,159.527 303.77,154.15 z M300.6,142.955 L305.788,142.955 L297.392,160.411 L289.934,160.411 L289.88,149.472 L289.673,149.472 L284.283,160.411 L276.904,160.411 L276.836,142.955 L282.075,142.955 L281.692,156.408 L281.872,156.408 L288.681,142.955 L294.048,142.955 L294.335,156.408 L294.517,156.408 L300.6,142.955 z M268.384,153.638 L269.31,149.705 C269.919,147.121 269.025,146.865 266.341,146.865 C263.658,146.865 262.72,147.121 262.034,149.705 L261.107,153.638 C260.57,156.245 261.387,156.501 264.071,156.501 C266.755,156.501 267.769,156.245 268.384,153.638 z M255.671,154.15 L256.834,149.216 C258.101,143.84 262.058,142.816 267.296,142.816 C272.534,142.816 276.008,143.84 274.741,149.216 L273.578,154.15 C272.311,159.527 268.355,160.551 263.117,160.551 C257.879,160.551 254.404,159.527 255.671,154.15 z M233.01,160.411 L227.849,160.411 L231.962,142.955 L240.142,142.955 L241.249,153.918 L241.43,153.918 L247.521,142.955 L255.908,142.955 L251.795,160.411 L246.634,160.411 L250.303,147.029 L250.123,147.029 L242.067,160.411 L237.603,160.411 L235.802,147.029 L235.647,147.029 L233.01,160.411 z M221.703,153.638 L222.63,149.705 C223.239,147.121 222.344,146.865 219.661,146.865 C216.978,146.865 216.04,147.121 215.354,149.705 L214.427,153.638 C213.89,156.245 214.707,156.501 217.391,156.501 C220.074,156.501 221.089,156.245 221.703,153.638 z M208.991,154.15 L210.153,149.216 C211.42,143.84 215.377,142.816 220.615,142.816 C225.853,142.816 229.327,143.84 228.06,149.216 L226.898,154.15 C225.631,159.527 221.674,160.551 216.436,160.551 C211.198,160.551 207.724,159.527 208.991,154.15 z M190.923,160.411 L185.763,160.411 L189.876,142.955 L198.597,142.955 L200.986,156.361 L201.192,156.361 L204.041,142.955 L209.202,142.955 L205.089,160.411 L196.29,160.411 L193.979,147.005 L193.772,147.005 L190.923,160.411 z M179.616,153.638 L180.543,149.705 C181.152,147.121 180.258,146.865 177.574,146.865 C174.89,146.865 173.953,147.121 173.267,149.705 L172.34,153.638 C171.803,156.245 172.62,156.501 175.304,156.501 C177.987,156.501 179.002,156.245 179.616,153.638 z M166.904,154.15 L168.066,149.216 C169.333,143.84 173.29,142.816 178.528,142.816 C183.766,142.816 187.241,143.84 185.974,149.216 L184.811,154.15 C183.544,159.527 179.587,160.551 174.349,160.551 C169.111,160.551 165.637,159.527 166.904,154.15 z M165.282,153.801 L165.161,154.313 C164.712,156.222 164.28,157.944 162.213,159.27 C160.151,160.574 158.015,160.551 155.77,160.551 C150.506,160.551 146.716,160.318 148.219,153.941 L149.283,149.426 C150.643,143.654 154.272,142.816 159.949,142.816 C165.265,142.816 167.626,143.304 166.496,148.541 L166.336,149.216 L161.021,149.216 L161.18,148.541 C161.367,146.982 160.182,146.865 158.427,146.865 C155.486,146.865 155.01,147.68 154.423,150.17 L153.781,152.893 C153.167,155.5 153.061,156.501 156.157,156.501 C158.298,156.501 159.363,156.361 159.846,154.313 L159.966,153.801 L165.282,153.801 z M141.219,153.638 L142.146,149.705 C142.755,147.121 141.861,146.865 139.177,146.865 C136.494,146.865 135.556,147.121 134.87,149.705 L133.943,153.638 C133.406,156.245 134.223,156.501 136.907,156.501 C139.59,156.501 140.605,156.245 141.219,153.638 z M128.507,154.15 L129.669,149.216 C130.936,143.84 134.893,142.816 140.131,142.816 C145.369,142.816 148.844,143.84 147.577,149.216 L146.414,154.15 C145.147,159.527 141.19,160.551 135.952,160.551 C130.714,160.551 127.24,159.527 128.507,154.15 z M109.982,150.194 L117.878,150.194 L116.979,154.011 L109.083,154.011 L107.575,160.411 L102.414,160.411 L106.527,142.955 L120.254,142.955 L119.355,146.772 L110.788,146.772 L109.982,150.194 z M96.423,153.638 L97.35,149.705 C97.958,147.121 97.064,146.865 94.38,146.865 C91.697,146.865 90.759,147.121 90.073,149.705 L89.147,153.638 C88.61,156.245 89.427,156.501 92.11,156.501 C94.794,156.501 95.809,156.245 96.423,153.638 z M83.71,154.15 L84.873,149.216 C86.14,143.84 90.097,142.816 95.335,142.816 C100.573,142.816 104.047,143.84 102.78,149.216 L101.618,154.15 C100.351,159.527 96.394,160.551 91.156,160.551 C85.918,160.551 82.444,159.527 83.71,154.15 z M65.992,146.446 L65.94,146.446 L61.81,154.011 L66.609,154.011 L65.992,146.446 z M59.899,157.409 L58.237,160.411 L52.87,160.411 L62.789,142.955 L70.633,142.955 L72.403,160.411 L67.139,160.411 L66.841,157.409 L59.899,157.409 z M51.58,160.411 L46.419,160.411 L50.532,142.955 L55.693,142.955 L51.58,160.411 z M34.793,149.519 L36.341,149.519 L42.867,142.955 L49.112,142.955 L40.282,151.52 L45.566,160.411 L39.167,160.411 L35.387,153.568 L33.839,153.568 L32.226,160.411 L27.066,160.411 L31.179,142.955 L36.339,142.955 L34.793,149.519" fill="#184183"/>
  </g>
</svg>
